<svg xmlns="http://www.w3.org/2000/svg" xmlns:xlink="http://www.w3.org/1999/xlink" id="Ebene_1" data-name="Ebene 1" viewBox="0 0 181.14 50"><defs><style>.cls-1{fill:url(#Unbenannter_Verlauf_6);}.cls-2{fill:url(#Unbenannter_Verlauf_6-2);}.cls-3{fill:url(#Unbenannter_Verlauf_6-3);}.cls-4{fill:url(#Unbenannter_Verlauf_6-4);}.cls-5{fill:url(#Unbenannter_Verlauf_6-5);}.cls-6{fill:url(#Unbenannter_Verlauf_6-6);}.cls-7{fill:url(#Unbenannter_Verlauf_6-8);}.cls-8{fill:url(#Unbenannter_Verlauf_6-9);}.cls-9{fill:url(#Unbenannter_Verlauf_6-10);}.cls-10{fill:url(#Unbenannter_Verlauf_6-11);}.cls-11{fill:url(#Unbenannter_Verlauf_6-12);}</style><linearGradient id="Unbenannter_Verlauf_6" x1="25" y1="50.33" x2="25" gradientUnits="userSpaceOnUse"><stop offset="0" stop-color="#54aeff"></stop><stop offset="1" stop-color="#f421ff"></stop></linearGradient><linearGradient id="Unbenannter_Verlauf_6-2" x1="65.45" y1="50.33" x2="65.45" y2="0" xlink:href="#Unbenannter_Verlauf_6"></linearGradient><linearGradient id="Unbenannter_Verlauf_6-3" x1="138.22" y1="50.33" x2="138.22" y2="0" xlink:href="#Unbenannter_Verlauf_6"></linearGradient><linearGradient id="Unbenannter_Verlauf_6-4" x1="80.67" y1="50.33" x2="80.67" y2="0" xlink:href="#Unbenannter_Verlauf_6"></linearGradient><linearGradient id="Unbenannter_Verlauf_6-5" x1="123" y1="50.33" x2="123" y2="0" xlink:href="#Unbenannter_Verlauf_6"></linearGradient><linearGradient id="Unbenannter_Verlauf_6-6" x1="154.93" y1="50.33" x2="154.93" y2="0" xlink:href="#Unbenannter_Verlauf_6"></linearGradient><linearGradient id="Unbenannter_Verlauf_6-8" x1="93.84" y1="50.33" x2="93.84" y2="0" xlink:href="#Unbenannter_Verlauf_6"></linearGradient><linearGradient id="Unbenannter_Verlauf_6-9" x1="108.13" y1="50.33" x2="108.13" y2="0" xlink:href="#Unbenannter_Verlauf_6"></linearGradient><linearGradient id="Unbenannter_Verlauf_6-10" x1="175.99" y1="50.33" x2="175.99" y2="0" xlink:href="#Unbenannter_Verlauf_6"></linearGradient><linearGradient id="Unbenannter_Verlauf_6-11" x1="172.54" y1="50.33" x2="172.54" y2="0" xlink:href="#Unbenannter_Verlauf_6"></linearGradient><linearGradient id="Unbenannter_Verlauf_6-12" x1="166.22" y1="50.33" x2="166.22" y2="0" xlink:href="#Unbenannter_Verlauf_6"></linearGradient></defs><title>Sedra_Logo</title><path class="cls-1" d="M25,0A25,25,0,1,0,50,25,25,25,0,0,0,25,0ZM42.1,24.5H37.6a1.05,1.05,0,0,1-.9-.5L25.8,30.6v5.5l9.5-5.8v-2a1.11,1.11,0,0,1,1.1-1.1h4.5A1.11,1.11,0,0,1,42,28.3v4.5a1.11,1.11,0,0,1-1.1,1.1H36.4a1.11,1.11,0,0,1-1.1-1.1v-.6L25.8,38v1.4h1.5a1.11,1.11,0,0,1,1.1,1.1V45a1.11,1.11,0,0,1-1.1,1.1H22.8A1.11,1.11,0,0,1,21.7,45V40.5a1.11,1.11,0,0,1,1.1-1.1h1.5V38l-9.5-5.8v.6a1.11,1.11,0,0,1-1.1,1.1H9.1A1.11,1.11,0,0,1,8,32.8V28.3a1.11,1.11,0,0,1,1.1-1.1h4.5a1.11,1.11,0,0,1,1.1,1.1v2l9.5,5.8V30.6L13.3,24a1.05,1.05,0,0,1-.9.5H7.9a1.11,1.11,0,0,1-1.1-1.1V18.9a1.11,1.11,0,0,1,1.1-1.1h4.5a1.11,1.11,0,0,1,1.1,1.1v3.3l4.3,2.6V19.4H16.3a1.11,1.11,0,0,1-1.1-1.1V13.8a1.11,1.11,0,0,1,1.1-1.1h4.5a1.11,1.11,0,0,1,1.1,1.1v4.5a1.11,1.11,0,0,1-1.1,1.1H19.3v6.4l4.8,2.9V10.6H22.6a1.11,1.11,0,0,1-1.1-1.1V5.1A1.11,1.11,0,0,1,22.6,4h4.5a1.11,1.11,0,0,1,1.1,1.1V9.6a1.11,1.11,0,0,1-1.1,1.1H25.6V28.8l4.8-2.9V19.5H28.9a1.11,1.11,0,0,1-1.1-1.1V13.9a1.11,1.11,0,0,1,1.1-1.1h4.5a1.11,1.11,0,0,1,1.1,1.1v4.5a1.11,1.11,0,0,1-1.1,1.1H31.9v5.4l4.3-2.6V19a1.11,1.11,0,0,1,1.1-1.1h4.5A1.11,1.11,0,0,1,42.9,19v4.5C43.1,24,42.6,24.5,42.1,24.5Z"></path><path class="cls-2" d="M67.4,23.68a5.46,5.46,0,0,1,5.5,5.5,5.46,5.46,0,0,1-5.5,5.5H58l1.7-3.4h7.7a2.1,2.1,0,1,0,0-4.2H63.9A5.94,5.94,0,0,1,59.7,17a5.66,5.66,0,0,1,4.2-1.7h7v3.4H64a2.79,2.79,0,0,0-1.8.6,2.6,2.6,0,0,0-.9,1.6,2.28,2.28,0,0,0,.7,1.9,2.56,2.56,0,0,0,1.9.8l3.5.1Z"></path><path class="cls-3" d="M139.57,18.6A5.94,5.94,0,0,1,144,20.53l2.31-2.31a9.55,9.55,0,0,0-3.07-2.16,9,9,0,0,0-3.71-.78,9.09,9.09,0,0,0-3.68.77,9.44,9.44,0,0,0-3,2.07,9.9,9.9,0,0,0,0,13.76,9.44,9.44,0,0,0,3,2.07,9.09,9.09,0,0,0,3.68.77,9,9,0,0,0,3.71-.78,9.55,9.55,0,0,0,3.07-2.16L144,29.47a6.44,6.44,0,0,1-2,1.43,6.07,6.07,0,0,1-6.86-1.37,6.52,6.52,0,0,1,0-9.06A6,6,0,0,1,139.57,18.6Z"></path><rect class="cls-4" x="75.8" y="20.87" width="9.73" height="3.42"></rect><polygon class="cls-5" points="123 20.11 116.21 34.72 119.71 34.72 123 27.64 126.29 34.72 129.79 34.72 124.63 23.65 123 20.11"></polygon><path class="cls-6" d="M159.67,23a6.67,6.67,0,0,0-2.13-1.46,6.55,6.55,0,0,0-5.21,0A6.78,6.78,0,0,0,150.2,23a6.63,6.63,0,0,0-1.42,2.18,6.92,6.92,0,0,0,0,5.31,6.53,6.53,0,0,0,1.42,2.18,6.78,6.78,0,0,0,2.13,1.46,6.55,6.55,0,0,0,5.21,0,6.67,6.67,0,0,0,2.13-1.46,7,7,0,0,0,1.42-2.18,7,7,0,0,0,0-5.31A7,7,0,0,0,159.67,23Zm-1.37,4.84a3.36,3.36,0,0,1-1,2.46,3.31,3.31,0,0,1-4.76,0,3.56,3.56,0,0,1,0-4.93,3.31,3.31,0,0,1,4.76,0A3.39,3.39,0,0,1,158.3,27.82Z"></path><polygon class="cls-4" points="79.22 29.71 84.45 29.71 84.45 26.29 75.8 26.29 75.8 26.23 75.8 26.23 75.8 34.62 85.53 34.62 85.53 31.2 79.22 31.2 79.22 29.71"></polygon><path class="cls-7" d="M98.69,25.08A6.89,6.89,0,0,0,95,21.43a7,7,0,0,0-2.67-.56H88.43v3.42h3.94a3.39,3.39,0,0,1,1.76.5A3,3,0,0,1,95.34,26a3.14,3.14,0,0,1,.49,1.72,3.32,3.32,0,0,1-1,2.45,3.08,3.08,0,0,1-2.41,1h-.52V26.29H88.43v8.33h3.94A7,7,0,0,0,95,34.06a6.89,6.89,0,0,0,3.65-3.65,6.62,6.62,0,0,0,0-5.33Z"></path><path class="cls-8" d="M110.89,28.93a3.94,3.94,0,0,0,1.26-1.28,4,4,0,0,0,.75-2.39,4,4,0,0,0-1.29-3.14,4.46,4.46,0,0,0-3.1-1.25h-6.36v3.42h6.36a.9.9,0,0,1,1,1,.91.91,0,0,1-.26.7.89.89,0,0,1-.71.26h-6.36v8.4h3.42V29.71h2.2l2.8,4.91h3.54Z"></path><polygon class="cls-9" points="181.15 34.66 181.15 20.98 177.74 20.98 177.74 24.93 175.11 20.98 172.62 20.97 170.83 20.98 170.83 24.38 173.65 24.38 180.18 34.66 181.15 34.66"></polygon><polygon class="cls-10" points="172.71 26.23 170.83 26.23 170.83 34.66 174.25 34.66 174.25 28.65 172.71 26.23"></polygon><rect class="cls-11" x="164.51" y="20.98" width="3.42" height="3.36"></rect><rect class="cls-11" x="164.51" y="26.22" width="3.42" height="8.43"></rect></svg>